<svg xmlns="http://www.w3.org/2000/svg" width="1024" height="1024" viewBox="0 0 1024 1024" fill="none">
<defs>
<radialGradient id="bg" cx="0" cy="0" r="1" gradientUnits="userSpaceOnUse" gradientTransform="translate(512 492) rotate(90) scale(405)">
<stop stop-color="#173F25"/><stop offset=".5" stop-color="#092113"/><stop offset="1" stop-color="#020805"/>
</radialGradient>
<linearGradient id="g" x1="300" y1="170" x2="720" y2="790" gradientUnits="userSpaceOnUse">
<stop stop-color="#E1FFB8"/><stop offset=".22" stop-color="#86FF55"/><stop offset=".6" stop-color="#20D85A"/><stop offset="1" stop-color="#057436"/>
</linearGradient>
<filter id="glow" x="-80%" y="-80%" width="260%" height="260%"><feGaussianBlur stdDeviation="16"/><feMerge><feMergeNode/><feMergeNode in="SourceGraphic"/></feMerge></filter>
<filter id="tight" x="-60%" y="-60%" width="220%" height="220%"><feGaussianBlur stdDeviation="5"/><feMerge><feMergeNode/><feMergeNode in="SourceGraphic"/></feMerge></filter>
<filter id="shadow" x="-60%" y="-60%" width="220%" height="220%"><feDropShadow dx="0" dy="15" stdDeviation="16" flood-color="#000" flood-opacity=".8"/></filter>
<pattern id="grid" width="42" height="42" patternUnits="userSpaceOnUse"><path d="M42 0H0V42" stroke="#39E76B" stroke-opacity=".07" stroke-width="2"/></pattern>
</defs>

<g filter="url(#glow)" opacity=".72">
<circle cx="512" cy="492" r="350" stroke="#4CFF78" stroke-width="8" stroke-dasharray="3 25" opacity=".42"/>
<circle cx="512" cy="492" r="326" stroke="#1CBE50" stroke-width="3" stroke-dasharray="14 18" opacity=".5"/>
</g>
<g filter="url(#shadow)">
<circle cx="512" cy="492" r="338" fill="url(#bg)" stroke="#0B4A27" stroke-width="8"/>
<circle cx="512" cy="492" r="319" stroke="#42FF72" stroke-opacity=".58" stroke-width="3"/>
<circle cx="512" cy="492" r="294" stroke="#0A7A3B" stroke-opacity=".6" stroke-width="2"/>
</g>
<circle cx="512" cy="492" r="286" fill="url(#grid)"/>

<!-- mastery chamber -->
<g filter="url(#shadow)">
<path d="M512 264L698 371V597L512 704L326 597V371Z" fill="#06150B" stroke="#42F26D" stroke-width="10"/>
<path d="M512 302L660 387V581L512 666L364 581V387Z" fill="#0A2A16" stroke="#159A47" stroke-width="4"/>
</g>

<!-- mastery crown -->
<g filter="url(#shadow)" stroke-linejoin="round">
<path d="M392 466L422 388L472 430L512 350L552 430L602 388L632 466L602 558L552 594H472L422 558Z"
fill="#071B0E" stroke="#70FF7F" stroke-width="11"/>
<path d="M426 474L448 424L480 452L512 394L544 452L576 424L598 474L574 534L540 558H484L450 534Z"
fill="#0A351B" stroke="#BFFF9F" stroke-width="6"/>
</g>

<!-- mastery core -->
<g filter="url(#glow)">
<circle cx="512" cy="482" r="68" fill="#06150B" stroke="#DFFFBE" stroke-width="9"/>
<path d="M512 424L538 458L578 482L538 506L512 552L486 506L446 482L486 458Z"
fill="url(#g)" stroke="#F0FFD9" stroke-width="7"/>
<circle cx="512" cy="482" r="10" fill="#06150B"/>
</g>

<!-- completed progression rings -->
<g fill="none" stroke-linecap="round">
<circle cx="512" cy="482" r="100" stroke="#CFFFAD" stroke-width="6" stroke-dasharray="8 14"/>
<circle cx="512" cy="482" r="146" stroke="#70FF7F" stroke-width="5" stroke-dasharray="20 13"/>
<circle cx="512" cy="482" r="196" stroke="#2AD75A" stroke-width="4" stroke-dasharray="6 24"/>
</g>

<!-- mastery rays -->
<g filter="url(#glow)" stroke-linecap="round">
<path d="M512 214V316" stroke="#0A6B34" stroke-width="32"/>
<path d="M512 214V316" stroke="#E3FFC8" stroke-width="9"/>
<path d="M512 648V780" stroke="#0A6B34" stroke-width="32"/>
<path d="M512 648V780" stroke="#63FF79" stroke-width="9"/>
<path d="M360 482H432M592 482H664" stroke="#CFFFAD" stroke-width="8"/>
</g>

<!-- mastery pillars -->
<g filter="url(#shadow)">
<path d="M368 366L402 346L430 376L408 410L374 400Z" fill="#0D3B1D" stroke="#AFFF92" stroke-width="7"/>
<path d="M656 366L622 346L594 376L616 410L650 400Z" fill="#0D3B1D" stroke="#AFFF92" stroke-width="7"/>
<path d="M368 600L402 620L430 590L408 556L374 566Z" fill="#0D3B1D" stroke="#70FF7F" stroke-width="7"/>
<path d="M656 600L622 620L594 590L616 556L650 566Z" fill="#0D3B1D" stroke="#70FF7F" stroke-width="7"/>
</g>

<!-- mastery sparks -->
<g filter="url(#tight)">
<circle cx="410" cy="320" r="5" fill="#E3FFC8"/>
<circle cx="614" cy="320" r="5" fill="#CFFFAD"/>
<circle cx="390" cy="662" r="4" fill="#70FF7F"/>
<circle cx="634" cy="662" r="4" fill="#55FF78"/>
</g>

<!-- top jewel -->
<g filter="url(#glow)">
<path d="M512 132L541 170L512 206L483 170Z" fill="url(#g)" stroke="#C5FFA5" stroke-width="5"/>
</g>

<g stroke="#71FF87" stroke-width="5" stroke-linecap="round" opacity=".72">
<path d="M270 270H340M270 270V340"/>
<path d="M754 270H684M754 270V340"/>
<path d="M270 714H340M270 714V644"/>
<path d="M754 714H684M754 714V644"/>
</g>
</svg>