<svg xmlns="http://www.w3.org/2000/svg" width="1024" height="1024" viewBox="0 0 1024 1024" fill="none">
<defs>
  <radialGradient id="bg" cx="0" cy="0" r="1" gradientUnits="userSpaceOnUse" gradientTransform="translate(512 492) rotate(90) scale(405)">
    <stop stop-color="#173F25"/><stop offset=".5" stop-color="#092113"/><stop offset="1" stop-color="#020805"/>
  </radialGradient>
  <linearGradient id="green" x1="300" y1="170" x2="720" y2="790" gradientUnits="userSpaceOnUse">
    <stop stop-color="#E1FFB8"/><stop offset=".22" stop-color="#86FF55"/><stop offset=".6" stop-color="#20D85A"/><stop offset="1" stop-color="#057436"/>
  </linearGradient>
  <filter id="glow" x="-80%" y="-80%" width="260%" height="260%"><feGaussianBlur stdDeviation="16"/><feMerge><feMergeNode/><feMergeNode in="SourceGraphic"/></feMerge></filter>
  <filter id="tight" x="-60%" y="-60%" width="220%" height="220%"><feGaussianBlur stdDeviation="5"/><feMerge><feMergeNode/><feMergeNode in="SourceGraphic"/></feMerge></filter>
  <filter id="shadow" x="-60%" y="-60%" width="220%" height="220%"><feDropShadow dx="0" dy="15" stdDeviation="16" flood-color="#000" flood-opacity=".8"/></filter>
  <pattern id="grid" width="42" height="42" patternUnits="userSpaceOnUse">
    <path d="M42 0H0V42" stroke="#39E76B" stroke-opacity=".07" stroke-width="2"/>
    <circle cx="4" cy="4" r="1.5" fill="#A5FF87" fill-opacity=".15"/>
  </pattern>
</defs>

<g filter="url(#glow)" opacity=".72">
  <circle cx="512" cy="492" r="350" stroke="#4CFF78" stroke-width="8" stroke-dasharray="3 25" opacity=".42"/>
  <circle cx="512" cy="492" r="326" stroke="#1CBE50" stroke-width="3" stroke-dasharray="14 18" opacity=".5"/>
</g>

<g filter="url(#shadow)">
  <circle cx="512" cy="492" r="338" fill="url(#bg)" stroke="#0B4A27" stroke-width="8"/>
  <circle cx="512" cy="492" r="319" stroke="#42FF72" stroke-opacity=".58" stroke-width="3"/>
  <circle cx="512" cy="492" r="294" stroke="#0A7A3B" stroke-opacity=".6" stroke-width="2"/>
</g>
<circle cx="512" cy="492" r="286" fill="url(#grid)"/>

<!-- challenge gauntlet housing -->
<g filter="url(#shadow)">
  <path d="M512 264L698 371V597L512 704L326 597V371Z" fill="#06150B" stroke="#42F26D" stroke-width="10"/>
  <path d="M512 302L660 387V581L512 666L364 581V387Z" fill="#0A2A16" stroke="#159A47" stroke-width="4"/>
</g>

<!-- gauntlet silhouette -->
<g filter="url(#shadow)">
  <path d="M414 574L396 444L420 402L452 410L462 344L490 332L512 352L534 332L562 344L572 410L604 402L628 444L610 574L566 626L458 626Z"
        fill="#071B0E" stroke="#70FF7F" stroke-width="10" stroke-linejoin="round"/>
</g>

<!-- reinforced knuckle plates -->
<g filter="url(#shadow)">
  <path d="M442 414L458 356L486 370L484 438L456 458Z" fill="#0D3B1D" stroke="#BFFF9F" stroke-width="6"/>
  <path d="M486 382L498 344L512 356L510 440L486 450Z" fill="#0D3B1D" stroke="#CFFFAD" stroke-width="6"/>
  <path d="M538 382L526 344L512 356L514 440L538 450Z" fill="#0D3B1D" stroke="#CFFFAD" stroke-width="6"/>
  <path d="M582 414L566 356L538 370L540 438L568 458Z" fill="#0D3B1D" stroke="#BFFF9F" stroke-width="6"/>
</g>

<!-- gauntlet core -->
<g filter="url(#glow)">
  <circle cx="512" cy="492" r="70" fill="#06150B" stroke="#DFFFBE" stroke-width="8"/>
  <path d="M512 438L536 474L574 492L536 510L512 546L488 510L450 492L488 474Z"
        fill="url(#green)" stroke="#F0FFD9" stroke-width="7"/>
  <circle cx="512" cy="492" r="10" fill="#06150B"/>
</g>

<!-- challenge energy lines -->
<g filter="url(#tight)" stroke-linecap="round">
  <path d="M392 492H444M580 492H632" stroke="#8DFF7E" stroke-width="9"/>
  <path d="M420 548L462 526M604 548L562 526" stroke="#70FF7F" stroke-width="8"/>
</g>

<!-- power bands -->
<g fill="none" stroke-linecap="round">
  <path d="M386 590C426 642 470 666 512 670C554 666 598 642 638 590" stroke="#55FF78" stroke-width="7"/>
  <path d="M386 382C426 330 470 306 512 302C554 306 598 330 638 382" stroke="#BFFF9F" stroke-width="7"/>
</g>

<!-- challenge nodes -->
<g filter="url(#tight)">
  <circle cx="372" cy="360" r="12" fill="#DFFFBE" stroke="#72FF80" stroke-width="5"/>
  <circle cx="652" cy="360" r="12" fill="#BFFF9F" stroke="#55FF78" stroke-width="5"/>
  <circle cx="372" cy="624" r="12" fill="#70FF7F" stroke="#45EF6D" stroke-width="5"/>
  <circle cx="652" cy="624" r="12" fill="#55FF78" stroke="#45EF6D" stroke-width="5"/>
</g>

<!-- gauntlet energy rails -->
<g filter="url(#glow)" stroke-linecap="round">
  <path d="M512 210V286" stroke="#0A6B34" stroke-width="32"/>
  <path d="M512 210V286" stroke="#E3FFC8" stroke-width="9"/>
  <path d="M512 704V780" stroke="#0A6B34" stroke-width="32"/>
  <path d="M512 704V780" stroke="#63FF79" stroke-width="9"/>
</g>

<!-- impact sparks -->
<g filter="url(#tight)" stroke-linecap="round">
  <path d="M354 430L326 414M670 430L698 414" stroke="#CFFFAD" stroke-width="7"/>
  <path d="M350 550L320 566M674 550L704 566" stroke="#70FF7F" stroke-width="7"/>
</g>

<!-- top crystal -->
<g filter="url(#tight)">
  <path d="M512 132L541 170L512 206L483 170Z" fill="url(#green)" stroke="#C5FFA5" stroke-width="5"/>
</g>

<g stroke="#71FF87" stroke-width="5" stroke-linecap="round" opacity=".72">
  <path d="M270 270H340M270 270V340"/>
  <path d="M754 270H684M754 270V340"/>
  <path d="M270 714H340M270 714V644"/>
  <path d="M754 714H684M754 714V644"/>
</g>

<g fill="#A2FF88" filter="url(#tight)">
  <circle cx="302" cy="414" r="4"/><circle cx="722" cy="414" r="4"/>
  <circle cx="324" cy="610" r="3"/><circle cx="700" cy="610" r="4"/>
  <circle cx="410" cy="756" r="4"/><circle cx="618" cy="756" r="3"/>
</g>
</svg>