<svg xmlns="http://www.w3.org/2000/svg" width="1024" height="1024" viewBox="0 0 1024 1024" fill="none">
<defs>
<radialGradient id="bg" cx="0" cy="0" r="1" gradientUnits="userSpaceOnUse" gradientTransform="translate(512 492) rotate(90) scale(405)">
<stop stop-color="#173F25"/><stop offset=".5" stop-color="#092113"/><stop offset="1" stop-color="#020805"/>
</radialGradient>
<linearGradient id="g" x1="300" y1="170" x2="720" y2="790" gradientUnits="userSpaceOnUse">
<stop stop-color="#E1FFB8"/><stop offset=".22" stop-color="#86FF55"/><stop offset=".6" stop-color="#20D85A"/><stop offset="1" stop-color="#057436"/>
</linearGradient>
<filter id="glow" x="-80%" y="-80%" width="260%" height="260%"><feGaussianBlur stdDeviation="16"/><feMerge><feMergeNode/><feMergeNode in="SourceGraphic"/></feMerge></filter>
<filter id="tight" x="-60%" y="-60%" width="220%" height="220%"><feGaussianBlur stdDeviation="5"/><feMerge><feMergeNode/><feMergeNode in="SourceGraphic"/></feMerge></filter>
<filter id="shadow" x="-60%" y="-60%" width="220%" height="220%"><feDropShadow dx="0" dy="15" stdDeviation="16" flood-color="#000" flood-opacity=".8"/></filter>
<pattern id="grid" width="42" height="42" patternUnits="userSpaceOnUse"><path d="M42 0H0V42" stroke="#39E76B" stroke-opacity=".07" stroke-width="2"/></pattern>
</defs>

<g filter="url(#glow)" opacity=".72">
<circle cx="512" cy="492" r="350" stroke="#4CFF78" stroke-width="8" stroke-dasharray="3 25" opacity=".42"/>
<circle cx="512" cy="492" r="326" stroke="#1CBE50" stroke-width="3" stroke-dasharray="14 18" opacity=".5"/>
</g>
<g filter="url(#shadow)">
<circle cx="512" cy="492" r="338" fill="url(#bg)" stroke="#0B4A27" stroke-width="8"/>
<circle cx="512" cy="492" r="319" stroke="#42FF72" stroke-opacity=".58" stroke-width="3"/>
<circle cx="512" cy="492" r="294" stroke="#0A7A3B" stroke-opacity=".6" stroke-width="2"/>
</g>
<circle cx="512" cy="492" r="286" fill="url(#grid)"/>

<!-- momentum chamber -->
<g filter="url(#shadow)">
<path d="M512 264L698 371V597L512 704L326 597V371Z" fill="#06150B" stroke="#42F26D" stroke-width="10"/>
<path d="M512 302L660 387V581L512 666L364 581V387Z" fill="#0A2A16" stroke="#159A47" stroke-width="4"/>
</g>

<!-- accelerating wheel -->
<g filter="url(#shadow)">
<circle cx="512" cy="500" r="132" fill="#071B0E" stroke="#70FF7F" stroke-width="10"/>
<circle cx="512" cy="500" r="100" fill="#0A351B" stroke="#BFFF9F" stroke-width="6"/>
</g>

<!-- rotating spokes -->
<g filter="url(#glow)" stroke-linecap="round">
<path d="M512 400V454M512 546V600M412 500H466M558 500H612" stroke="#CFFFAD" stroke-width="12"/>
<path d="M441 429L479 467M545 533L583 571M583 429L545 467M479 533L441 571" stroke="#70FF7F" stroke-width="10"/>
</g>

<!-- central momentum core -->
<g filter="url(#glow)">
<circle cx="512" cy="500" r="48" fill="#06150B" stroke="#DFFFBE" stroke-width="8"/>
<path d="M512 460L530 486L562 500L530 514L512 540L494 514L462 500L494 486Z" fill="url(#g)" stroke="#F0FFD9" stroke-width="6"/>
<circle cx="512" cy="500" r="8" fill="#06150B"/>
</g>

<!-- momentum trails -->
<g filter="url(#glow)" fill="none" stroke-linecap="round">
<path d="M378 424C340 454 324 494 334 536C346 584 384 616 428 632" stroke="#0A6B34" stroke-width="32"/>
<path d="M378 424C340 454 324 494 334 536C346 584 384 616 428 632" stroke="#8DFF7E" stroke-width="8"/>
<path d="M646 424C684 454 700 494 690 536C678 584 640 616 596 632" stroke="#0A6B34" stroke-width="32"/>
<path d="M646 424C684 454 700 494 690 536C678 584 640 616 596 632" stroke="#BFFF9F" stroke-width="8"/>
</g>

<!-- forward energy direction -->
<g filter="url(#glow)" stroke-linecap="round" stroke-linejoin="round">
<path d="M512 330V238" stroke="#0A6B34" stroke-width="34"/>
<path d="M512 330V238" stroke="#E3FFC8" stroke-width="9"/>
<path d="M512 238L478 278M512 238L546 278" stroke="#E3FFC8" stroke-width="9"/>
</g>

<!-- momentum orbit -->
<g fill="none" stroke-linecap="round">
<ellipse cx="512" cy="500" rx="168" ry="76" stroke="#CFFFAD" stroke-width="6" stroke-dasharray="8 14"/>
<ellipse cx="512" cy="500" rx="212" ry="96" stroke="#55FF78" stroke-width="5" stroke-dasharray="20 13"/>
</g>

<!-- acceleration fins -->
<g filter="url(#shadow)" stroke-linejoin="round">
<path d="M388 394L342 366L360 426L408 444Z" fill="#0D3B1D" stroke="#AFFF92" stroke-width="7"/>
<path d="M636 394L682 366L664 426L616 444Z" fill="#0D3B1D" stroke="#AFFF92" stroke-width="7"/>
<path d="M388 606L342 634L360 574L408 556Z" fill="#0D3B1D" stroke="#70FF7F" stroke-width="7"/>
<path d="M636 606L682 634L664 574L616 556Z" fill="#0D3B1D" stroke="#70FF7F" stroke-width="7"/>
</g>

<!-- speed particles -->
<g filter="url(#tight)">
<circle cx="390" cy="344" r="5" fill="#E3FFC8"/>
<circle cx="634" cy="344" r="5" fill="#CFFFAD"/>
<circle cx="360" cy="666" r="4" fill="#70FF7F"/>
<circle cx="664" cy="666" r="4" fill="#55FF78"/>
</g>

<!-- lower drive rail -->
<g filter="url(#glow)" stroke-linecap="round">
<path d="M512 670V780" stroke="#0A6B34" stroke-width="32"/>
<path d="M512 670V780" stroke="#63FF79" stroke-width="9"/>
</g>

<!-- side nodes -->
<g filter="url(#tight)">
<circle cx="370" cy="360" r="12" fill="#DFFFBE" stroke="#72FF80" stroke-width="5"/>
<circle cx="654" cy="360" r="12" fill="#BFFF9F" stroke="#55FF78" stroke-width="5"/>
<circle cx="370" cy="624" r="12" fill="#70FF7F" stroke="#45EF6D" stroke-width="5"/>
<circle cx="654" cy="624" r="12" fill="#55FF78" stroke="#45EF6D" stroke-width="5"/>
</g>

<g filter="url(#tight)">
<path d="M512 132L541 170L512 206L483 170Z" fill="url(#g)" stroke="#C5FFA5" stroke-width="5"/>
</g>

<g stroke="#71FF87" stroke-width="5" stroke-linecap="round" opacity=".72">
<path d="M270 270H340M270 270V340"/>
<path d="M754 270H684M754 270V340"/>
<path d="M270 714H340M270 714V644"/>
<path d="M754 714H684M754 714V644"/>
</g>
</svg>