<svg xmlns="http://www.w3.org/2000/svg" width="1024" height="1024" viewBox="0 0 1024 1024" fill="none">
<defs>
  <radialGradient id="bg" cx="0" cy="0" r="1" gradientUnits="userSpaceOnUse" gradientTransform="translate(512 492) rotate(90) scale(405)">
    <stop stop-color="#173F25"/><stop offset=".5" stop-color="#092113"/><stop offset="1" stop-color="#020805"/>
  </radialGradient>
  <linearGradient id="green" x1="300" y1="170" x2="720" y2="790" gradientUnits="userSpaceOnUse">
    <stop stop-color="#E1FFB8"/><stop offset=".22" stop-color="#86FF55"/><stop offset=".6" stop-color="#20D85A"/><stop offset="1" stop-color="#057436"/>
  </linearGradient>
  <filter id="glow" x="-80%" y="-80%" width="260%" height="260%"><feGaussianBlur stdDeviation="16"/><feMerge><feMergeNode/><feMergeNode in="SourceGraphic"/></feMerge></filter>
  <filter id="tight" x="-60%" y="-60%" width="220%" height="220%"><feGaussianBlur stdDeviation="5"/><feMerge><feMergeNode/><feMergeNode in="SourceGraphic"/></feMerge></filter>
  <filter id="shadow" x="-60%" y="-60%" width="220%" height="220%"><feDropShadow dx="0" dy="15" stdDeviation="16" flood-color="#000" flood-opacity=".8"/></filter>
  <pattern id="grid" width="42" height="42" patternUnits="userSpaceOnUse">
    <path d="M42 0H0V42" stroke="#39E76B" stroke-opacity=".07" stroke-width="2"/>
    <circle cx="4" cy="4" r="1.5" fill="#A5FF87" fill-opacity=".15"/>
  </pattern>
</defs>

<g filter="url(#glow)" opacity=".72">
  <circle cx="512" cy="492" r="350" stroke="#4CFF78" stroke-width="8" stroke-dasharray="3 25" opacity=".42"/>
  <circle cx="512" cy="492" r="326" stroke="#1CBE50" stroke-width="3" stroke-dasharray="14 18" opacity=".5"/>
</g>

<g filter="url(#shadow)">
  <circle cx="512" cy="492" r="338" fill="url(#bg)" stroke="#0B4A27" stroke-width="8"/>
  <circle cx="512" cy="492" r="319" stroke="#42FF72" stroke-opacity=".58" stroke-width="3"/>
  <circle cx="512" cy="492" r="294" stroke="#0A7A3B" stroke-opacity=".6" stroke-width="2"/>
</g>
<circle cx="512" cy="492" r="286" fill="url(#grid)"/>

<!-- forge chamber -->
<g filter="url(#shadow)">
  <path d="M512 264L698 371V597L512 704L326 597V371Z" fill="#06150B" stroke="#42F26D" stroke-width="10"/>
  <path d="M512 302L660 387V581L512 666L364 581V387Z" fill="#0A2A16" stroke="#159A47" stroke-width="4"/>
</g>

<!-- anvil -->
<g filter="url(#shadow)">
  <path d="M386 526H638L606 574H418Z" fill="#071B0E" stroke="#70FF7F" stroke-width="9" stroke-linejoin="round"/>
  <path d="M430 574H594L570 622H454Z" fill="#0A351B" stroke="#55FF78" stroke-width="7" stroke-linejoin="round"/>
  <path d="M410 526L438 486H586L614 526Z" fill="#0D3B1D" stroke="#BFFF9F" stroke-width="7" stroke-linejoin="round"/>
</g>

<!-- forged core -->
<g filter="url(#glow)">
  <path d="M512 334L548 390L590 430L548 470L512 536L476 470L434 430L476 390Z"
        fill="url(#green)" stroke="#F0FFD9" stroke-width="8" stroke-linejoin="round"/>
  <circle cx="512" cy="430" r="18" fill="#06150B" stroke="#E8FFD2" stroke-width="5"/>
</g>

<!-- hammer -->
<g filter="url(#shadow)">
  <path d="M574 320L626 372L598 400L546 348Z" fill="#0A351B" stroke="#CFFFAD" stroke-width="8" stroke-linejoin="round"/>
  <path d="M598 344L644 390" stroke="#70FF7F" stroke-width="16" stroke-linecap="round"/>
</g>

<!-- forging sparks -->
<g filter="url(#glow)" stroke-linecap="round">
  <path d="M442 404L414 370M470 366L458 324M548 366L560 324M582 404L610 370" stroke="#E3FFC8" stroke-width="9"/>
  <path d="M426 450L388 438M598 450L636 438" stroke="#8DFF7E" stroke-width="8"/>
</g>

<!-- heat rings -->
<g fill="none" stroke-linecap="round">
  <circle cx="512" cy="450" r="106" stroke="#55FF78" stroke-width="6" stroke-dasharray="8 16"/>
  <circle cx="512" cy="450" r="148" stroke="#2AD75A" stroke-width="4" stroke-dasharray="20 14"/>
</g>

<!-- forge nodes -->
<g filter="url(#tight)">
  <circle cx="370" cy="360" r="12" fill="#DFFFBE" stroke="#72FF80" stroke-width="5"/>
  <circle cx="654" cy="360" r="12" fill="#BFFF9F" stroke="#55FF78" stroke-width="5"/>
  <circle cx="370" cy="624" r="12" fill="#70FF7F" stroke="#45EF6D" stroke-width="5"/>
  <circle cx="654" cy="624" r="12" fill="#55FF78" stroke="#45EF6D" stroke-width="5"/>
</g>

<!-- vertical forge energy -->
<g filter="url(#glow)" stroke-linecap="round">
  <path d="M512 210V282" stroke="#0A6B34" stroke-width="32"/>
  <path d="M512 210V282" stroke="#E3FFC8" stroke-width="9"/>
  <path d="M512 700V778" stroke="#0A6B34" stroke-width="32"/>
  <path d="M512 700V778" stroke="#63FF79" stroke-width="9"/>
</g>

<!-- heat exhaust -->
<g fill="none" stroke-linecap="round" filter="url(#tight)">
  <path d="M410 612C438 650 474 670 512 674C550 670 586 650 614 612" stroke="#70FF7F" stroke-width="7"/>
  <path d="M394 344C430 310 470 292 512 290C554 292 594 310 630 344" stroke="#BFFF9F" stroke-width="7"/>
</g>

<!-- top crystal -->
<g filter="url(#tight)">
  <path d="M512 132L541 170L512 206L483 170Z" fill="url(#green)" stroke="#C5FFA5" stroke-width="5"/>
</g>

<g stroke="#71FF87" stroke-width="5" stroke-linecap="round" opacity=".72">
  <path d="M270 270H340M270 270V340"/>
  <path d="M754 270H684M754 270V340"/>
  <path d="M270 714H340M270 714V644"/>
  <path d="M754 714H684M754 714V644"/>
</g>

<g fill="#A2FF88" filter="url(#tight)">
  <circle cx="302" cy="414" r="4"/><circle cx="722" cy="414" r="4"/>
  <circle cx="324" cy="610" r="3"/><circle cx="700" cy="610" r="4"/>
  <circle cx="410" cy="756" r="4"/><circle cx="618" cy="756" r="3"/>
</g>
</svg>