<svg xmlns="http://www.w3.org/2000/svg" width="1024" height="1024" viewBox="0 0 1024 1024" fill="none">
<defs>
<radialGradient id="bg" cx="0" cy="0" r="1" gradientUnits="userSpaceOnUse" gradientTransform="translate(512 492) rotate(90) scale(405)">
<stop stop-color="#173F25"/><stop offset=".5" stop-color="#092113"/><stop offset="1" stop-color="#020805"/>
</radialGradient>
<linearGradient id="g" x1="300" y1="170" x2="720" y2="790" gradientUnits="userSpaceOnUse">
<stop stop-color="#E1FFB8"/><stop offset=".22" stop-color="#86FF55"/><stop offset=".6" stop-color="#20D85A"/><stop offset="1" stop-color="#057436"/>
</linearGradient>
<filter id="glow" x="-80%" y="-80%" width="260%" height="260%"><feGaussianBlur stdDeviation="16"/><feMerge><feMergeNode/><feMergeNode in="SourceGraphic"/></feMerge></filter>
<filter id="tight" x="-60%" y="-60%" width="220%" height="220%"><feGaussianBlur stdDeviation="5"/><feMerge><feMergeNode/><feMergeNode in="SourceGraphic"/></feMerge></filter>
<filter id="shadow" x="-60%" y="-60%" width="220%" height="220%"><feDropShadow dx="0" dy="15" stdDeviation="16" flood-color="#000" flood-opacity=".8"/></filter>
<pattern id="grid" width="42" height="42" patternUnits="userSpaceOnUse"><path d="M42 0H0V42" stroke="#39E76B" stroke-opacity=".07" stroke-width="2"/></pattern>
</defs>

<g filter="url(#glow)" opacity=".72">
<circle cx="512" cy="492" r="350" stroke="#4CFF78" stroke-width="8" stroke-dasharray="3 25" opacity=".42"/>
<circle cx="512" cy="492" r="326" stroke="#1CBE50" stroke-width="3" stroke-dasharray="14 18" opacity=".5"/>
</g>
<g filter="url(#shadow)">
<circle cx="512" cy="492" r="338" fill="url(#bg)" stroke="#0B4A27" stroke-width="8"/>
<circle cx="512" cy="492" r="319" stroke="#42FF72" stroke-opacity=".58" stroke-width="3"/>
<circle cx="512" cy="492" r="294" stroke="#0A7A3B" stroke-opacity=".6" stroke-width="2"/>
</g>
<circle cx="512" cy="492" r="286" fill="url(#grid)"/>

<!-- synthesis chamber -->
<g filter="url(#shadow)">
<path d="M512 260L700 370V604L512 714L324 604V370Z" fill="#06150B" stroke="#42F26D" stroke-width="10"/>
<path d="M512 302L660 388V582L512 668L364 582V388Z" fill="#0A2A16" stroke="#159A47" stroke-width="4"/>
</g>

<!-- three streams converging -->
<g fill="none" stroke-linecap="round" filter="url(#glow)">
<path d="M356 366C416 398 448 430 474 470" stroke="#E3FFC8" stroke-width="10"/>
<path d="M668 366C608 398 576 430 550 470" stroke="#BFFF9F" stroke-width="10"/>
<path d="M512 660C512 596 512 550 512 510" stroke="#70FF7F" stroke-width="10"/>
</g>

<!-- source nodes -->
<g filter="url(#shadow)">
<circle cx="350" cy="360" r="38" fill="#071B0E" stroke="#AFFF92" stroke-width="8"/>
<circle cx="674" cy="360" r="38" fill="#071B0E" stroke="#AFFF92" stroke-width="8"/>
<circle cx="512" cy="674" r="38" fill="#071B0E" stroke="#70FF7F" stroke-width="8"/>
</g>

<g filter="url(#tight)">
<path d="M350 338L366 360L350 382L334 360Z" fill="#8DFF7E"/>
<path d="M674 338L690 360L674 382L658 360Z" fill="#70FF7F"/>
<path d="M512 652L528 674L512 696L496 674Z" fill="#55FF78"/>
</g>

<!-- synthesis core -->
<g filter="url(#glow)">
<circle cx="512" cy="474" r="82" fill="#06150B" stroke="#DFFFBE" stroke-width="10"/>
<path d="M512 400L540 442L586 474L540 506L512 558L484 506L438 474L484 442Z"
fill="url(#g)" stroke="#F0FFD9" stroke-width="8"/>
<circle cx="512" cy="474" r="12" fill="#06150B"/>
</g>

<!-- integrated geometry -->
<g fill="none" stroke-linecap="round">
<circle cx="512" cy="474" r="112" stroke="#CFFFAD" stroke-width="6" stroke-dasharray="7 15"/>
<circle cx="512" cy="474" r="158" stroke="#70FF7F" stroke-width="5" stroke-dasharray="20 13"/>
<circle cx="512" cy="474" r="208" stroke="#2AD75A" stroke-width="4" stroke-dasharray="6 24"/>
</g>

<!-- convergence brackets -->
<g filter="url(#shadow)" stroke-linejoin="round">
<path d="M388 430L424 402L466 444L438 476L398 466Z" fill="#0D3B1D" stroke="#AFFF92" stroke-width="7"/>
<path d="M636 430L600 402L558 444L586 476L626 466Z" fill="#0D3B1D" stroke="#AFFF92" stroke-width="7"/>
<path d="M430 566L464 536L496 570L472 606L438 596Z" fill="#0D3B1D" stroke="#70FF7F" stroke-width="7"/>
<path d="M594 566L560 536L528 570L552 606L586 596Z" fill="#0D3B1D" stroke="#70FF7F" stroke-width="7"/>
</g>

<!-- unified beam -->
<g filter="url(#glow)" stroke-linecap="round">
<path d="M512 214V330" stroke="#0A6B34" stroke-width="34"/>
<path d="M512 214V330" stroke="#E3FFC8" stroke-width="9"/>
<path d="M512 608V780" stroke="#0A6B34" stroke-width="34"/>
<path d="M512 608V780" stroke="#63FF79" stroke-width="9"/>
</g>

<!-- synthesis particles -->
<g filter="url(#tight)">
<circle cx="410" cy="310" r="5" fill="#E3FFC8"/>
<circle cx="614" cy="310" r="5" fill="#CFFFAD"/>
<circle cx="392" cy="660" r="4" fill="#70FF7F"/>
<circle cx="632" cy="660" r="4" fill="#55FF78"/>
<circle cx="430" cy="470" r="4" fill="#AFFF92"/>
<circle cx="594" cy="470" r="4" fill="#8DFF7E"/>
</g>

<g filter="url(#glow)">
<path d="M512 132L541 170L512 206L483 170Z" fill="url(#g)" stroke="#C5FFA5" stroke-width="5"/>
</g>

<g stroke="#71FF87" stroke-width="5" stroke-linecap="round" opacity=".72">
<path d="M270 270H340M270 270V340"/>
<path d="M754 270H684M754 270V340"/>
<path d="M270 714H340M270 714V644"/>
<path d="M754 714H684M754 714V644"/>
</g>
</svg>