<svg xmlns="http://www.w3.org/2000/svg" width="1024" height="1024" viewBox="0 0 1024 1024" fill="none">
<defs>
<radialGradient id="bg" cx="0" cy="0" r="1" gradientUnits="userSpaceOnUse" gradientTransform="translate(512 492) rotate(90) scale(405)">
<stop stop-color="#173F25"/><stop offset=".5" stop-color="#092113"/><stop offset="1" stop-color="#020805"/>
</radialGradient>
<linearGradient id="g" x1="300" y1="170" x2="720" y2="790" gradientUnits="userSpaceOnUse">
<stop stop-color="#E1FFB8"/><stop offset=".22" stop-color="#86FF55"/><stop offset=".6" stop-color="#20D85A"/><stop offset="1" stop-color="#057436"/>
</linearGradient>
<filter id="glow" x="-80%" y="-80%" width="260%" height="260%"><feGaussianBlur stdDeviation="16"/><feMerge><feMergeNode/><feMergeNode in="SourceGraphic"/></feMerge></filter>
<filter id="tight" x="-60%" y="-60%" width="220%" height="220%"><feGaussianBlur stdDeviation="5"/><feMerge><feMergeNode/><feMergeNode in="SourceGraphic"/></feMerge></filter>
<filter id="shadow" x="-60%" y="-60%" width="220%" height="220%"><feDropShadow dx="0" dy="15" stdDeviation="16" flood-color="#000" flood-opacity=".8"/></filter>
<pattern id="grid" width="42" height="42" patternUnits="userSpaceOnUse"><path d="M42 0H0V42" stroke="#39E76B" stroke-opacity=".07" stroke-width="2"/></pattern>
</defs>

<g filter="url(#glow)" opacity=".72">
<circle cx="512" cy="492" r="350" stroke="#4CFF78" stroke-width="8" stroke-dasharray="3 25" opacity=".42"/>
<circle cx="512" cy="492" r="326" stroke="#1CBE50" stroke-width="3" stroke-dasharray="14 18" opacity=".5"/>
</g>
<g filter="url(#shadow)">
<circle cx="512" cy="492" r="338" fill="url(#bg)" stroke="#0B4A27" stroke-width="8"/>
<circle cx="512" cy="492" r="319" stroke="#42FF72" stroke-opacity=".58" stroke-width="3"/>
<circle cx="512" cy="492" r="294" stroke="#0A7A3B" stroke-opacity=".6" stroke-width="2"/>
</g>
<circle cx="512" cy="492" r="286" fill="url(#grid)"/>

<!-- resilience chamber -->
<g filter="url(#shadow)">
<path d="M512 252L704 364V604L512 716L320 604V364Z" fill="#06150B" stroke="#42F26D" stroke-width="10"/>
<path d="M512 298L662 384V584L512 670L362 584V384Z" fill="#0A2A16" stroke="#159A47" stroke-width="4"/>
</g>

<!-- impact shield -->
<g filter="url(#shadow)" stroke-linejoin="round">
<path d="M512 324L626 374V474C626 566 572 620 512 654C452 620 398 566 398 474V374Z"
fill="#071B0E" stroke="#70FF7F" stroke-width="12"/>
<path d="M512 358L594 394V472C594 538 558 580 512 608C466 580 430 538 430 472V394Z"
fill="#0A351B" stroke="#BFFF9F" stroke-width="7"/>
</g>

<!-- repaired shield seams -->
<g filter="url(#glow)" stroke-linecap="round">
<path d="M512 376V430" stroke="#E3FFC8" stroke-width="9"/>
<path d="M512 534V588" stroke="#70FF7F" stroke-width="9"/>
<path d="M454 462L486 478M570 462L538 478" stroke="#CFFFAD" stroke-width="8"/>
</g>

<!-- resilience core -->
<g filter="url(#glow)">
<circle cx="512" cy="488" r="62" fill="#06150B" stroke="#DFFFBE" stroke-width="9"/>
<path d="M512 432L538 462L574 488L538 514L512 550L486 514L450 488L486 462Z"
fill="url(#g)" stroke="#F0FFD9" stroke-width="7"/>
<circle cx="512" cy="488" r="10" fill="#06150B"/>
</g>

<!-- rebound rings -->
<g fill="none" stroke-linecap="round">
<circle cx="512" cy="488" r="102" stroke="#CFFFAD" stroke-width="6" stroke-dasharray="8 14"/>
<circle cx="512" cy="488" r="154" stroke="#70FF7F" stroke-width="5" stroke-dasharray="20 13"/>
<circle cx="512" cy="488" r="210" stroke="#2AD75A" stroke-width="4" stroke-dasharray="6 24"/>
</g>

<!-- impact waves -->
<g filter="url(#glow)" stroke-linecap="round">
<path d="M342 416L394 438" stroke="#E3FFC8" stroke-width="9"/>
<path d="M682 416L630 438" stroke="#E3FFC8" stroke-width="9"/>
<path d="M342 560L394 538" stroke="#70FF7F" stroke-width="8"/>
<path d="M682 560L630 538" stroke="#70FF7F" stroke-width="8"/>
</g>

<!-- reinforced anchors -->
<g filter="url(#shadow)">
<path d="M366 350L402 330L432 360L408 396L374 384Z" fill="#0D3B1D" stroke="#AFFF92" stroke-width="7"/>
<path d="M658 350L622 330L592 360L616 396L650 384Z" fill="#0D3B1D" stroke="#AFFF92" stroke-width="7"/>
<path d="M366 628L402 648L432 618L408 582L374 594Z" fill="#0D3B1D" stroke="#70FF7F" stroke-width="7"/>
<path d="M658 628L622 648L592 618L616 582L650 594Z" fill="#0D3B1D" stroke="#70FF7F" stroke-width="7"/>
</g>

<!-- rebound rails -->
<g filter="url(#glow)" stroke-linecap="round">
<path d="M512 210V304" stroke="#0A6B34" stroke-width="32"/>
<path d="M512 210V304" stroke="#E3FFC8" stroke-width="9"/>
<path d="M512 672V780" stroke="#0A6B34" stroke-width="32"/>
<path d="M512 672V780" stroke="#63FF79" stroke-width="9"/>
</g>

<!-- resilient fragments -->
<g filter="url(#tight)">
<path d="M410 314L426 330L410 346L394 330Z" fill="#E3FFC8"/>
<path d="M614 314L630 330L614 346L598 330Z" fill="#CFFFAD"/>
<path d="M392 664L406 678L392 692L378 678Z" fill="#70FF7F"/>
<path d="M632 664L646 678L632 692L618 678Z" fill="#55FF78"/>
</g>

<g filter="url(#glow)">
<path d="M512 132L541 170L512 206L483 170Z" fill="url(#g)" stroke="#C5FFA5" stroke-width="5"/>
</g>

<g stroke="#71FF87" stroke-width="5" stroke-linecap="round" opacity=".72">
<path d="M270 270H340M270 270V340"/>
<path d="M754 270H684M754 270V340"/>
<path d="M270 714H340M270 714V644"/>
<path d="M754 714H684M754 714V644"/>
</g>
</svg>