<svg xmlns="http://www.w3.org/2000/svg" width="1024" height="1024" viewBox="0 0 1024 1024" fill="none">
<defs>
  <radialGradient id="bg" cx="0" cy="0" r="1" gradientUnits="userSpaceOnUse" gradientTransform="translate(512 492) rotate(90) scale(405)">
    <stop stop-color="#173F25"/><stop offset=".5" stop-color="#092113"/><stop offset="1" stop-color="#020805"/>
  </radialGradient>
  <linearGradient id="green" x1="300" y1="170" x2="720" y2="790" gradientUnits="userSpaceOnUse">
    <stop stop-color="#E1FFB8"/><stop offset=".22" stop-color="#86FF55"/><stop offset=".6" stop-color="#20D85A"/><stop offset="1" stop-color="#057436"/>
  </linearGradient>
  <filter id="glow" x="-80%" y="-80%" width="260%" height="260%"><feGaussianBlur stdDeviation="16"/><feMerge><feMergeNode/><feMergeNode in="SourceGraphic"/></feMerge></filter>
  <filter id="tight" x="-60%" y="-60%" width="220%" height="220%"><feGaussianBlur stdDeviation="5"/><feMerge><feMergeNode/><feMergeNode in="SourceGraphic"/></feMerge></filter>
  <filter id="shadow" x="-60%" y="-60%" width="220%" height="220%"><feDropShadow dx="0" dy="15" stdDeviation="16" flood-color="#000" flood-opacity=".8"/></filter>
  <pattern id="grid" width="42" height="42" patternUnits="userSpaceOnUse">
    <path d="M42 0H0V42" stroke="#39E76B" stroke-opacity=".07" stroke-width="2"/>
    <circle cx="4" cy="4" r="1.5" fill="#A5FF87" fill-opacity=".15"/>
  </pattern>
</defs>

<g filter="url(#glow)" opacity=".72">
  <circle cx="512" cy="492" r="350" stroke="#4CFF78" stroke-width="8" stroke-dasharray="3 25" opacity=".42"/>
  <circle cx="512" cy="492" r="326" stroke="#1CBE50" stroke-width="3" stroke-dasharray="14 18" opacity=".5"/>
</g>

<g filter="url(#shadow)">
  <circle cx="512" cy="492" r="338" fill="url(#bg)" stroke="#0B4A27" stroke-width="8"/>
  <circle cx="512" cy="492" r="319" stroke="#42FF72" stroke-opacity=".58" stroke-width="3"/>
  <circle cx="512" cy="492" r="294" stroke="#0A7A3B" stroke-opacity=".6" stroke-width="2"/>
</g>
<circle cx="512" cy="492" r="286" fill="url(#grid)"/>

<!-- reset / clean slate chamber -->
<g filter="url(#shadow)">
  <path d="M512 268L694 373V591L512 696L330 591V373Z"
        fill="#06150B" stroke="#42F26D" stroke-width="10"/>
  <path d="M512 306L658 390V574L512 658L366 574V390Z"
        fill="#0A2A16" stroke="#159A47" stroke-width="4"/>
</g>

<!-- circular reset mechanism -->
<g filter="url(#glow)">
  <circle cx="512" cy="492" r="148" fill="#06150B" stroke="#6FFF80" stroke-width="9"/>
  <circle cx="512" cy="492" r="112" fill="#0A351B" stroke="#BFFF9F" stroke-width="6"/>
  <circle cx="512" cy="492" r="78" fill="#06150B" stroke="#55FF78" stroke-width="6"/>
</g>

<!-- clockwise reset arrow -->
<g filter="url(#shadow)" fill="none" stroke-linecap="round" stroke-linejoin="round">
  <path d="M512 388C450 388 408 432 408 492C408 552 450 596 512 596C568 596 610 562 616 512"
        stroke="#0A6B34" stroke-width="32"/>
  <path d="M512 388C450 388 408 432 408 492C408 552 450 596 512 596C568 596 610 562 616 512"
        stroke="#8DFF7E" stroke-width="9"/>
  <path d="M614 466L620 516L574 494" stroke="#CFFFAD" stroke-width="11"/>
</g>

<!-- clean central core -->
<g filter="url(#glow)">
  <circle cx="512" cy="492" r="44" fill="url(#green)" stroke="#E2FFC8" stroke-width="6"/>
  <circle cx="512" cy="492" r="12" fill="#F0FFD9"/>
</g>

<!-- cleared segments -->
<g filter="url(#tight)">
  <path d="M392 350L430 372L412 406L374 384Z" fill="#BFFF9F" stroke="#72FF80" stroke-width="5"/>
  <path d="M632 350L650 384L612 406L594 372Z" fill="#8DFF80" stroke="#55FF78" stroke-width="5"/>
  <path d="M392 634L412 600L450 622L430 656Z" fill="#70FF7F" stroke="#45EF6D" stroke-width="5"/>
  <path d="M632 634L594 622L612 600L650 656Z" fill="#55FF78" stroke="#45EF6D" stroke-width="5"/>
</g>

<!-- fresh-start beams -->
<g filter="url(#glow)" stroke-linecap="round">
  <path d="M512 242V326" stroke="#0A6B34" stroke-width="30"/>
  <path d="M512 242V326" stroke="#BFFF9F" stroke-width="8"/>
  <path d="M512 658V742" stroke="#0A6B34" stroke-width="30"/>
  <path d="M512 658V742" stroke="#63FF79" stroke-width="8"/>
</g>

<!-- reset ticks -->
<g stroke="#CFFFAD" stroke-width="5" stroke-linecap="round" opacity=".85">
  <path d="M430 330L444 344M594 330L580 344M430 654L444 640M594 654L580 640"/>
</g>

<!-- top crystal -->
<g filter="url(#tight)">
  <path d="M512 132L541 170L512 206L483 170Z" fill="url(#green)" stroke="#C5FFA5" stroke-width="5"/>
</g>

<g stroke="#71FF87" stroke-width="5" stroke-linecap="round" opacity=".72">
  <path d="M270 270H340M270 270V340"/>
  <path d="M754 270H684M754 270V340"/>
  <path d="M270 714H340M270 714V644"/>
  <path d="M754 714H684M754 714V644"/>
</g>

<g fill="#A2FF88" filter="url(#tight)">
  <circle cx="302" cy="414" r="4"/><circle cx="722" cy="414" r="4"/>
  <circle cx="324" cy="610" r="3"/><circle cx="700" cy="610" r="4"/>
  <circle cx="410" cy="756" r="4"/><circle cx="618" cy="756" r="3"/>
</g>
</svg>